<?xml version="1.0" encoding="utf-8"?><svg viewBox="0 0 35 35" xmlns="http://www.w3.org/2000/svg" xmlns:xlink="http://www.w3.org/1999/xlink"><style>:root>svg{display:none}:root>svg:target{display:block}</style><svg viewBox="0 0 30 30" id="address" xmlns="http://www.w3.org/2000/svg"><g clip-path="url(#aclip0_84_4018)"><path d="M29.933 30H.068V11.947L14.902 0l15.03 11.945V30zM1.03 29.037h27.938V12.41L14.905 1.233 1.031 12.408v16.629z"/></g><defs><clipPath id="aclip0_84_4018"><path fill="#fff" d="M0 0h30v30H0z"/></clipPath></defs></svg><svg viewBox="0 0 32 15" id="arrow" xmlns="http://www.w3.org/2000/svg"><path d="M31.707 8.207a1 1 0 000-1.414L25.343.429a1 1 0 10-1.414 1.414L29.586 7.5l-5.657 5.657a1 1 0 001.414 1.414l6.364-6.364zM0 8.5h31v-2H0v2z"/></svg><svg fill="none" viewBox="0 0 28 28" id="back" xmlns="http://www.w3.org/2000/svg"><path d="M17.938 6.125L10.063 14l7.874 7.875" stroke="#fff" stroke-width="1.5" stroke-linecap="round" stroke-linejoin="round"/></svg><svg viewBox="0 0 30 30" id="for" xmlns="http://www.w3.org/2000/svg"><g clip-path="url(#dclip0_84_3709)"><path d="M1.755 7.5L14.745 0l12.99 7.5v15l-12.99-7-12.99 7v-15z"/></g><defs><clipPath id="dclip0_84_3709"><path fill="#fff" d="M0 0h30v30H0z"/></clipPath></defs></svg><svg viewBox="0 0 16 23" id="location" xmlns="http://www.w3.org/2000/svg"><g clip-path="url(#eclip0_84_4171)"><path d="M8.117 0c-4.3 0-7.78 3.536-7.78 7.906C.338 12.276 8.118 23 8.118 23s7.78-10.724 7.78-15.094c0-4.37-3.48-7.906-7.78-7.906zm0 11.5c-1.952 0-3.536-1.61-3.536-3.594 0-1.983 1.584-3.593 3.536-3.593s3.536 1.61 3.536 3.593c0 1.984-1.584 3.594-3.536 3.594z"/></g><defs><clipPath id="eclip0_84_4171"><path fill="#fff" transform="translate(.338)" d="M0 0h15.559v23H0z"/></clipPath></defs></svg><svg viewBox="0 0 35 21" id="mail" xmlns="http://www.w3.org/2000/svg"><g clip-path="url(#fclip0_84_4025)"><path d="M34.632 21H.368V0h34.264v21zM1.473 19.895h32.053V1.105H1.473v18.79z"/><path d="M17.5 14.524L.575.984l.691-.863L17.5 13.108 33.733.12l.691.863L17.5 14.524z"/></g><defs><clipPath id="fclip0_84_4025"><path fill="#fff" d="M0 0h35v21H0z"/></clipPath></defs></svg><svg fill="none" viewBox="0 0 24 16" id="menu" xmlns="http://www.w3.org/2000/svg"><path d="M1.5 1.002h21m-21 7h21m-21 7h21" stroke="#fff" stroke-width="1.5" stroke-linecap="round" stroke-linejoin="round"/></svg><svg fill="none" viewBox="0 0 20 20" id="minus" xmlns="http://www.w3.org/2000/svg"><g clip-path="url(#hclip0_84_3949)"><path d="M19.6 11.067V8.933H.4v2.134h19.2z" fill="#fff"/></g><defs><clipPath id="hclip0_84_3949"><path fill="#fff" transform="translate(.4 .4)" d="M0 0h19.2v19.2H0z"/></clipPath></defs></svg><svg viewBox="0 0 21 35" id="phone" xmlns="http://www.w3.org/2000/svg"><g clip-path="url(#iclip0_84_4033)"><path d="M18.127 34.632H2.874A2.877 2.877 0 010 31.758V3.242C0 1.604 1.235.368 2.874.368h15.253A2.877 2.877 0 0121 3.242v28.516a2.876 2.876 0 01-2.873 2.874zM2.874 1.473c-1.025 0-1.769.744-1.769 1.769v28.516c0 1.058.914 1.768 1.769 1.768h15.253c1.058 0 1.768-.914 1.768-1.768V3.242c0-1.058-.914-1.769-1.768-1.769H2.874z"/><path d="M20.447 27.779v1.105H.552v-1.105h19.895z"/></g><defs><clipPath id="iclip0_84_4033"><path fill="#fff" d="M0 0h21v35H0z"/></clipPath></defs></svg></svg>