<svg width="48" height="77" viewBox="0 0 48 77" fill="none" xmlns="http://www.w3.org/2000/svg">
<g id="icon">
<rect id="Rectangle 406" x="16.879" y="7.90662" width="10.1818" height="10.1818" transform="rotate(-45 16.879 7.90662)" stroke="#947F56"/>
<rect id="Rectangle 409" x="16.879" y="38.3381" width="10.1818" height="10.1818" transform="rotate(-45 16.879 38.3381)" stroke="#947F56"/>
<rect id="Rectangle 410" x="16.879" y="69.0934" width="10.1818" height="10.1818" transform="rotate(-45 16.879 69.0934)" stroke="#947F56"/>
<rect id="Rectangle 407" x="32.7414" y="22.7986" width="10.1818" height="10.1818" transform="rotate(-45 32.7414 22.7986)" stroke="#947F56"/>
<rect id="Rectangle 411" x="32.7414" y="53.554" width="10.1818" height="10.1818" transform="rotate(-45 32.7414 53.554)" stroke="#947F56"/>
<rect id="Rectangle 408" x="1.01479" y="22.4751" width="10.1818" height="10.1818" transform="rotate(-45 1.01479 22.4751)" stroke="#947F56"/>
<rect id="Rectangle 412" x="1.01479" y="53.2301" width="10.1818" height="10.1818" transform="rotate(-45 1.01479 53.2301)" stroke="#947F56"/>
<path id="Vector 172" d="M20.0558 11.3309L12.2861 19.1007" stroke="#947F56"/>
<path id="Vector 176" d="M20.0558 42.0859L12.2861 49.8557" stroke="#947F56"/>
<path id="Vector 174" d="M28.4734 11.3309L36.2432 19.1007" stroke="#947F56"/>
<path id="Vector 177" d="M28.4734 42.0859L36.2432 49.8557" stroke="#947F56"/>
<path id="Vector 173" d="M36.2441 26.5465L28.1506 34.64" stroke="#947F56"/>
<path id="Vector 178" d="M36.2441 57.3018L28.1506 65.3952" stroke="#947F56"/>
<path id="Vector 175" d="M12.2864 26.2227L20.3799 34.3161" stroke="#947F56"/>
<path id="Vector 179" d="M12.2864 56.978L20.3799 65.0715" stroke="#947F56"/>
</g>
</svg>
