<svg width="650" height="335" viewBox="0 0 650 335" fill="none" xmlns="http://www.w3.org/2000/svg">
<g clip-path="url(#clip0_84_3987)">
<path d="M102.312 -47.4008L-77.6133 55.5754L-77.9905 96.3132V137.428L-65.5428 129.884C-24.805 104.989 284.123 -74.5593 286.009 -74.5593C289.404 -74.5593 374.652 -24.7686 376.538 -21.751C377.67 -20.2422 337.309 5.03033 286.764 34.0749C236.596 63.4966 192.463 89.5236 189.069 92.164L255.833 137.051L350.134 79.7163C401.81 48.0314 446.32 22.3817 448.584 22.3817L540.998 77.4531C539.489 78.9619 414.635 152.139 264.132 240.404L-10.4713 400.338L-9.33971 343.003L-8.20811 285.669L86.4696 230.974C138.523 200.798 181.525 174.394 182.279 172.508L118.155 133.656C117.023 134.411 72.1359 160.06 18.9504 190.991L-77.9905 247.571V382.987V518.402L-65.5428 510.858C6.12557 466.726 286.764 306.792 289.781 307.924C291.667 309.055 373.52 356.205 470.838 412.786L648.123 516.139L649.255 430.137C649.632 382.987 649.632 305.283 649.255 257.379L648.123 170.999L613.421 190.614L578.341 210.228V303.774C578.341 357.337 578.341 396.943 578.341 396.943C578.341 396.943 360.695 269.826 363.336 267.186C364.845 265.677 429.723 227.202 507.427 181.938L648.123 99.7081V77.4531V55.5754L468.952 -47.0236C370.503 -103.604 287.895 -150 286.009 -150C283.746 -150 201.139 -103.604 102.312 -47.4008Z" fill="black" fill-opacity="0.03"/>
</g>
<defs>
<clipPath id="clip0_84_3987">
<rect width="728" height="712.912" fill="white" transform="translate(-78 -150)"/>
</clipPath>
</defs>
</svg>
