<svg width="67" height="64" viewBox="0 0 67 64" fill="none" xmlns="http://www.w3.org/2000/svg">
<g clip-path="url(#clip0_84_3976)">
<path d="M17.0095 9.21074L0.857105 18.4552L0.823242 22.1123V25.8033L1.9407 25.1261C5.59785 22.8912 33.3312 6.77265 33.5005 6.77265C33.8053 6.77265 41.4582 11.2425 41.6275 11.5134C41.7291 11.6488 38.1058 13.9176 33.5682 16.525C29.0645 19.1663 25.1026 21.5028 24.7978 21.7398L30.7915 25.7695L39.2571 20.6224C43.8963 17.7779 47.892 15.4753 48.0952 15.4753L56.3915 20.4192C56.2561 20.5547 45.0476 27.124 31.5365 35.0478L6.88462 49.4055L6.98621 44.2584L7.08779 39.1113L15.5873 34.2012C20.2603 31.4922 24.1206 29.1219 24.1883 28.9525L18.4317 25.4647C18.3301 25.5324 14.3005 27.8351 9.52589 30.6118L0.823242 35.6912V47.8478V60.0044L1.9407 59.3271C8.37457 55.3652 33.5682 41.0076 33.8391 41.1092C34.0084 41.2107 41.3566 45.4435 50.0931 50.5229L66.0084 59.8012L66.11 52.0806C66.1439 47.8478 66.1439 40.8721 66.11 36.5716L66.0084 28.8171L62.8931 30.5779L59.7439 32.3388V40.7367C59.7439 45.5451 59.7439 49.1007 59.7439 49.1007C59.7439 49.1007 40.2053 37.6891 40.4423 37.452C40.5777 37.3166 46.4021 33.8626 53.3777 29.7991L66.0084 22.4171V20.4192V18.4552L49.9238 9.2446C41.0857 4.16523 33.6698 0.000160217 33.5005 0.000160217C33.2973 0.000160217 25.8814 4.16524 17.0095 9.21074Z" fill="#C19640"/>
<path d="M27.2354 61.291V64H29.9443H32.6533V61.291V58.582H29.9443H27.2354V61.291Z" fill="#C19640"/>
<path d="M27.2354 54.5185V57.2275H29.9443H32.6533V54.5185V51.8095H29.9443H27.2354V54.5185Z" fill="#C19640"/>
<path d="M34.3475 61.291V64H37.0565H39.7655V61.291V58.582H37.0565H34.3475V61.291Z" fill="#C19640"/>
<path d="M34.3475 54.5185V57.2275H37.0565H39.7655V54.5185V51.8095H37.0565H34.3475V54.5185Z" fill="#C19640"/>
</g>
<defs>
<clipPath id="clip0_84_3976">
<rect width="65.3545" height="64" fill="white" transform="translate(0.822266)"/>
</clipPath>
</defs>
</svg>
